<svg width="200" height="200" viewBox="0 0 200 200" fill="none" xmlns="http://www.w3.org/2000/svg">
  <!-- Multiple overlapping bookmarks -->
  <g>
    <!-- Bookmark 1 -->
    <path d="M40 30 L40 120 L60 105 L80 120 L80 30 Z" fill="#e53e3e" opacity="0.3"/>
    <path d="M40 30 L40 120 L60 105 L80 120 L80 30 Z" fill="none" stroke="#e53e3e" stroke-width="2"/>
    
    <!-- Bookmark 2 -->
    <path d="M60 40 L60 130 L80 115 L100 130 L100 40 Z" fill="#e53e3e" opacity="0.3"/>
    <path d="M60 40 L60 130 L80 115 L100 130 L100 40 Z" fill="none" stroke="#e53e3e" stroke-width="2"/>
    
    <!-- Bookmark 3 -->
    <path d="M80 35 L80 125 L100 110 L120 125 L120 35 Z" fill="#e53e3e" opacity="0.3"/>
    <path d="M80 35 L80 125 L100 110 L120 125 L120 35 Z" fill="none" stroke="#e53e3e" stroke-width="2"/>
    
    <!-- Bookmark 4 -->
    <path d="M100 45 L100 135 L120 120 L140 135 L140 45 Z" fill="#e53e3e" opacity="0.3"/>
    <path d="M100 45 L100 135 L120 120 L140 135 L140 45 Z" fill="none" stroke="#e53e3e" stroke-width="2"/>
    
    <!-- Bookmark 5 -->
    <path d="M120 50 L120 140 L140 125 L160 140 L160 50 Z" fill="#e53e3e" opacity="0.3"/>
    <path d="M120 50 L120 140 L140 125 L160 140 L160 50 Z" fill="none" stroke="#e53e3e" stroke-width="2"/>
  </g>
  
  <!-- Overflow indicator -->
  <text x="100" y="175" font-size="30" text-anchor="middle" fill="#e53e3e">∞</text>
</svg>
