<svg width="400" height="400" viewBox="0 0 400 400" fill="none" xmlns="http://www.w3.org/2000/svg">
  <!-- Background gradient -->
  <defs>
    <linearGradient id="bgGrad" x1="0%" y1="0%" x2="100%" y2="100%">
      <stop offset="0%" style="stop-color:#1a365d;stop-opacity:0.1" />
      <stop offset="100%" style="stop-color:#38a169;stop-opacity:0.1" />
    </linearGradient>
  </defs>
  
  <rect width="400" height="400" rx="20" fill="url(#bgGrad)"/>
  
  <!-- Network connections -->
  <g opacity="0.6">
    <line x1="200" y1="200" x2="120" y2="120" stroke="#38a169" stroke-width="2"/>
    <line x1="200" y1="200" x2="280" y2="120" stroke="#38a169" stroke-width="2"/>
    <line x1="200" y1="200" x2="120" y2="280" stroke="#38a169" stroke-width="2"/>
    <line x1="200" y1="200" x2="280" y2="280" stroke="#38a169" stroke-width="2"/>
    <line x1="200" y1="200" x2="200" y2="100" stroke="#38a169" stroke-width="2"/>
    <line x1="200" y1="200" x2="300" y2="200" stroke="#38a169" stroke-width="2"/>
    <line x1="200" y1="200" x2="100" y2="200" stroke="#38a169" stroke-width="2"/>
    <line x1="200" y1="200" x2="200" y2="300" stroke="#38a169" stroke-width="2"/>
  </g>
  
  <!-- Central brain -->
  <circle cx="200" cy="200" r="50" fill="#1a365d"/>
  <text x="200" y="220" font-family="Arial" font-size="48" text-anchor="middle">🧠</text>
  
  <!-- Surrounding nodes -->
  <circle cx="120" cy="120" r="25" fill="#38a169"/>
  <text x="120" y="130" font-family="Arial" font-size="24" text-anchor="middle">📝</text>
  
  <circle cx="280" cy="120" r="25" fill="#38a169"/>
  <text x="280" y="130" font-family="Arial" font-size="24" text-anchor="middle">🔗</text>
  
  <circle cx="120" cy="280" r="25" fill="#38a169"/>
  <text x="120" y="290" font-family="Arial" font-size="24" text-anchor="middle">💡</text>
  
  <circle cx="280" cy="280" r="25" fill="#38a169"/>
  <text x="280" y="290" font-family="Arial" font-size="24" text-anchor="middle">📚</text>
  
  <circle cx="200" cy="100" r="20" fill="#2d5a87"/>
  <text x="200" y="110" font-family="Arial" font-size="20" text-anchor="middle">⚡</text>
  
  <circle cx="300" cy="200" r="20" fill="#2d5a87"/>
  <text x="300" y="210" font-family="Arial" font-size="20" text-anchor="middle">🎯</text>
  
  <circle cx="100" cy="200" r="20" fill="#2d5a87"/>
  <text x="100" y="210" font-family="Arial" font-size="20" text-anchor="middle">🔍</text>
  
  <circle cx="200" cy="300" r="20" fill="#2d5a87"/>
  <text x="200" y="310" font-family="Arial" font-size="20" text-anchor="middle">✨</text>
</svg>
